<svg width="133" height="134" viewBox="0 0 133 134" fill="none" xmlns="http://www.w3.org/2000/svg">
<path d="M59.3984 59.8903L23.8475 24.3434ZM16.7374 35.0075L34.5128 17.2341L13.1823 6.57004L6.07212 13.6794L16.7374 35.0075ZM123.212 45.4938C126.626 42.0836 128.974 37.7545 129.972 33.0337C130.969 28.313 130.572 23.4041 128.829 18.9048L118.719 29.0143H104.498V14.7956L114.609 4.68605C110.109 2.93958 105.198 2.53946 100.474 3.53446C95.7507 4.52945 91.4185 6.8766 88.0055 10.2899C84.5926 13.7033 82.2461 18.0355 81.252 22.7587C80.258 27.4819 80.6592 32.3922 82.4069 36.8915L36.4041 82.8962C31.9044 81.1487 26.9935 80.7475 22.2697 81.7415C17.546 82.7354 13.2133 85.0816 9.79956 88.4942C6.38583 91.9068 4.03841 96.2385 3.0433 100.961C2.0482 105.684 2.44836 110.595 4.19503 115.094L14.2986 104.985H28.5189V119.204L18.4083 129.313C22.9073 131.06 27.8171 131.46 32.5398 130.467C37.2625 129.473 41.5943 127.127 45.0076 123.716C48.421 120.304 50.7686 115.974 51.7646 111.252C52.7606 106.531 52.362 101.621 50.6173 97.122L96.6343 51.1102C101.132 52.8497 106.039 53.245 110.757 52.2479C115.476 51.2508 119.803 48.9043 123.212 45.4938Z" fill="#ADD2FF"/>
<path d="M59.3984 59.8903L23.8475 24.3434M16.7374 35.0075L34.5128 17.2341L13.1823 6.57004L6.07212 13.6794L16.7374 35.0075ZM123.212 45.4938C126.626 42.0836 128.974 37.7545 129.972 33.0337C130.969 28.313 130.572 23.4041 128.829 18.9048L118.719 29.0143H104.498V14.7956L114.609 4.68605C110.109 2.93958 105.198 2.53946 100.474 3.53446C95.7507 4.52945 91.4185 6.8766 88.0055 10.2899C84.5926 13.7033 82.2461 18.0355 81.252 22.7587C80.258 27.4819 80.6592 32.3922 82.4069 36.8915L36.4041 82.8962C31.9044 81.1487 26.9935 80.7475 22.2697 81.7415C17.546 82.7354 13.2133 85.0816 9.79956 88.4942C6.38583 91.9068 4.03841 96.2385 3.0433 100.961C2.0482 105.684 2.44836 110.595 4.19503 115.094L14.2986 104.985H28.5189V119.204L18.4083 129.313C22.9073 131.06 27.8171 131.46 32.5398 130.467C37.2625 129.473 41.5943 127.127 45.0076 123.716C48.421 120.304 50.7686 115.974 51.7646 111.252C52.7606 106.531 52.362 101.621 50.6173 97.122L96.6343 51.1102C101.132 52.8497 106.039 53.245 110.757 52.2479C115.476 51.2508 119.803 48.9043 123.212 45.4938Z" stroke="black" stroke-width="4.51911" stroke-linecap="round" stroke-linejoin="round"/>
<path d="M65.0664 84.7713L104.912 124.612C105.803 125.505 106.862 126.214 108.028 126.697C109.194 127.181 110.443 127.43 111.706 127.43C112.968 127.43 114.217 127.181 115.383 126.697C116.549 126.214 117.608 125.505 118.499 124.612L124.131 118.982C125.024 118.09 125.732 117.031 126.216 115.866C126.7 114.7 126.948 113.45 126.948 112.189C126.948 110.927 126.7 109.677 126.216 108.511C125.732 107.346 125.024 106.287 124.131 105.396L84.2852 65.5547" fill="#C4B4FF"/>
<path d="M65.0664 84.7713L104.912 124.612C105.803 125.505 106.862 126.214 108.028 126.697C109.194 127.181 110.443 127.43 111.706 127.43C112.968 127.43 114.217 127.181 115.383 126.697C116.549 126.214 117.608 125.505 118.499 124.612L124.131 118.982C125.024 118.09 125.732 117.031 126.216 115.866C126.7 114.7 126.948 113.45 126.948 112.189C126.948 110.927 126.7 109.677 126.216 108.511C125.732 107.346 125.024 106.287 124.131 105.396L84.2852 65.5547" stroke="black" stroke-width="4.51911" stroke-linecap="round" stroke-linejoin="round"/>
</svg>
